<svg width="167" height="179" viewBox="0 0 167 179" fill="none" xmlns="http://www.w3.org/2000/svg">
<path fill-rule="evenodd" clip-rule="evenodd" d="M-8.91379 6.17241C-7.20933 6.17241 -5.82759 4.79067 -5.82759 3.08621C-5.82759 1.38174 -7.20933 0 -8.91379 0C-10.6183 0 -12 1.38174 -12 3.08621C-12 4.79067 -10.6183 6.17241 -8.91379 6.17241ZM-8.91379 104.931C-7.20933 104.931 -5.82759 103.549 -5.82759 101.845C-5.82759 100.14 -7.20933 98.7585 -8.91379 98.7585C-10.6183 98.7585 -12 100.14 -12 101.845C-12 103.549 -10.6183 104.931 -8.91379 104.931ZM-5.82759 52.4655C-5.82759 54.1699 -7.20933 55.5517 -8.91379 55.5517C-10.6183 55.5517 -12 54.1699 -12 52.4655C-12 50.761 -10.6183 49.3792 -8.91379 49.3792C-7.20933 49.3792 -5.82759 50.761 -5.82759 52.4655ZM-8.91379 154.31C-7.20933 154.31 -5.82759 152.928 -5.82759 151.224C-5.82759 149.52 -7.20933 148.138 -8.91379 148.138C-10.6183 148.138 -12 149.52 -12 151.224C-12 152.928 -10.6183 154.31 -8.91379 154.31ZM-5.82759 27.7758C-5.82759 29.4803 -7.20933 30.862 -8.91379 30.862C-10.6183 30.862 -12 29.4803 -12 27.7758C-12 26.0714 -10.6183 24.6896 -8.91379 24.6896C-7.20933 24.6896 -5.82759 26.0714 -5.82759 27.7758ZM-8.91379 129.621C-7.20933 129.621 -5.82759 128.239 -5.82759 126.534C-5.82759 124.83 -7.20933 123.448 -8.91379 123.448C-10.6183 123.448 -12 124.83 -12 126.534C-12 128.239 -10.6183 129.621 -8.91379 129.621ZM-5.82759 77.1551C-5.82759 78.8596 -7.20933 80.2413 -8.91379 80.2413C-10.6183 80.2413 -12 78.8596 -12 77.1551C-12 75.4506 -10.6183 74.0689 -8.91379 74.0689C-7.20933 74.0689 -5.82759 75.4506 -5.82759 77.1551ZM-8.91379 179C-7.20933 179 -5.82759 177.618 -5.82759 175.914C-5.82759 174.209 -7.20933 172.827 -8.91379 172.827C-10.6183 172.827 -12 174.209 -12 175.914C-12 177.618 -10.6183 179 -8.91379 179ZM92.931 3.08621C92.931 4.79067 91.5493 6.17241 89.8448 6.17241C88.1404 6.17241 86.7586 4.79067 86.7586 3.08621C86.7586 1.38174 88.1404 0 89.8448 0C91.5493 0 92.931 1.38174 92.931 3.08621ZM89.8448 104.931C91.5493 104.931 92.931 103.549 92.931 101.845C92.931 100.14 91.5493 98.7585 89.8448 98.7585C88.1404 98.7585 86.7586 100.14 86.7586 101.845C86.7586 103.549 88.1404 104.931 89.8448 104.931ZM92.931 52.4655C92.931 54.1699 91.5493 55.5517 89.8448 55.5517C88.1404 55.5517 86.7586 54.1699 86.7586 52.4655C86.7586 50.761 88.1404 49.3792 89.8448 49.3792C91.5493 49.3792 92.931 50.761 92.931 52.4655ZM89.8448 154.31C91.5493 154.31 92.931 152.928 92.931 151.224C92.931 149.52 91.5493 148.138 89.8448 148.138C88.1404 148.138 86.7586 149.52 86.7586 151.224C86.7586 152.928 88.1404 154.31 89.8448 154.31ZM92.931 27.7758C92.931 29.4803 91.5493 30.862 89.8448 30.862C88.1404 30.862 86.7586 29.4803 86.7586 27.7758C86.7586 26.0714 88.1404 24.6896 89.8448 24.6896C91.5493 24.6896 92.931 26.0714 92.931 27.7758ZM89.8448 129.621C91.5493 129.621 92.931 128.239 92.931 126.534C92.931 124.83 91.5493 123.448 89.8448 123.448C88.1404 123.448 86.7586 124.83 86.7586 126.534C86.7586 128.239 88.1404 129.621 89.8448 129.621ZM92.931 77.1551C92.931 78.8596 91.5493 80.2413 89.8448 80.2413C88.1404 80.2413 86.7586 78.8596 86.7586 77.1551C86.7586 75.4506 88.1404 74.0689 89.8448 74.0689C91.5493 74.0689 92.931 75.4506 92.931 77.1551ZM89.8448 179C91.5493 179 92.931 177.618 92.931 175.914C92.931 174.209 91.5493 172.827 89.8448 172.827C88.1404 172.827 86.7586 174.209 86.7586 175.914C86.7586 177.618 88.1404 179 89.8448 179ZM43.5517 3.08621C43.5517 4.79067 42.17 6.17241 40.4655 6.17241C38.761 6.17241 37.3793 4.79067 37.3793 3.08621C37.3793 1.38174 38.761 0 40.4655 0C42.17 0 43.5517 1.38174 43.5517 3.08621ZM40.4655 104.931C42.17 104.931 43.5517 103.549 43.5517 101.845C43.5517 100.14 42.17 98.7585 40.4655 98.7585C38.761 98.7585 37.3793 100.14 37.3793 101.845C37.3793 103.549 38.761 104.931 40.4655 104.931ZM43.5517 52.4655C43.5517 54.1699 42.17 55.5517 40.4655 55.5517C38.761 55.5517 37.3793 54.1699 37.3793 52.4655C37.3793 50.761 38.761 49.3792 40.4655 49.3792C42.17 49.3792 43.5517 50.761 43.5517 52.4655ZM40.4655 154.31C42.17 154.31 43.5517 152.928 43.5517 151.224C43.5517 149.52 42.17 148.138 40.4655 148.138C38.761 148.138 37.3793 149.52 37.3793 151.224C37.3793 152.928 38.761 154.31 40.4655 154.31ZM43.5517 27.7758C43.5517 29.4803 42.17 30.862 40.4655 30.862C38.761 30.862 37.3793 29.4803 37.3793 27.7758C37.3793 26.0714 38.761 24.6896 40.4655 24.6896C42.17 24.6896 43.5517 26.0714 43.5517 27.7758ZM40.4655 129.621C42.17 129.621 43.5517 128.239 43.5517 126.534C43.5517 124.83 42.17 123.448 40.4655 123.448C38.761 123.448 37.3793 124.83 37.3793 126.534C37.3793 128.239 38.761 129.621 40.4655 129.621ZM43.5517 77.1551C43.5517 78.8596 42.17 80.2413 40.4655 80.2413C38.761 80.2413 37.3793 78.8596 37.3793 77.1551C37.3793 75.4506 38.761 74.0689 40.4655 74.0689C42.17 74.0689 43.5517 75.4506 43.5517 77.1551ZM40.4655 179C42.17 179 43.5517 177.618 43.5517 175.914C43.5517 174.209 42.17 172.827 40.4655 172.827C38.761 172.827 37.3793 174.209 37.3793 175.914C37.3793 177.618 38.761 179 40.4655 179ZM142.31 3.08621C142.31 4.79067 140.929 6.17241 139.224 6.17241C137.52 6.17241 136.138 4.79067 136.138 3.08621C136.138 1.38174 137.52 0 139.224 0C140.929 0 142.31 1.38174 142.31 3.08621ZM139.224 104.931C140.929 104.931 142.31 103.549 142.31 101.845C142.31 100.14 140.929 98.7585 139.224 98.7585C137.52 98.7585 136.138 100.14 136.138 101.845C136.138 103.549 137.52 104.931 139.224 104.931ZM142.31 52.4655C142.31 54.1699 140.929 55.5517 139.224 55.5517C137.52 55.5517 136.138 54.1699 136.138 52.4655C136.138 50.761 137.52 49.3792 139.224 49.3792C140.929 49.3792 142.31 50.761 142.31 52.4655ZM139.224 154.31C140.929 154.31 142.31 152.928 142.31 151.224C142.31 149.52 140.929 148.138 139.224 148.138C137.52 148.138 136.138 149.52 136.138 151.224C136.138 152.928 137.52 154.31 139.224 154.31ZM142.31 27.7758C142.31 29.4803 140.929 30.862 139.224 30.862C137.52 30.862 136.138 29.4803 136.138 27.7758C136.138 26.0714 137.52 24.6896 139.224 24.6896C140.929 24.6896 142.31 26.0714 142.31 27.7758ZM139.224 129.621C140.929 129.621 142.31 128.239 142.31 126.534C142.31 124.83 140.929 123.448 139.224 123.448C137.52 123.448 136.138 124.83 136.138 126.534C136.138 128.239 137.52 129.621 139.224 129.621ZM142.31 77.1551C142.31 78.8596 140.929 80.2413 139.224 80.2413C137.52 80.2413 136.138 78.8596 136.138 77.1551C136.138 75.4506 137.52 74.0689 139.224 74.0689C140.929 74.0689 142.31 75.4506 142.31 77.1551ZM139.224 179C140.929 179 142.31 177.618 142.31 175.914C142.31 174.209 140.929 172.827 139.224 172.827C137.52 172.827 136.138 174.209 136.138 175.914C136.138 177.618 137.52 179 139.224 179ZM18.8621 3.08621C18.8621 4.79067 17.4803 6.17241 15.7759 6.17241C14.0714 6.17241 12.6897 4.79067 12.6897 3.08621C12.6897 1.38174 14.0714 0 15.7759 0C17.4803 0 18.8621 1.38174 18.8621 3.08621ZM15.7759 104.931C17.4803 104.931 18.8621 103.549 18.8621 101.845C18.8621 100.14 17.4803 98.7585 15.7759 98.7585C14.0714 98.7585 12.6897 100.14 12.6897 101.845C12.6897 103.549 14.0714 104.931 15.7759 104.931ZM18.8621 52.4655C18.8621 54.1699 17.4803 55.5517 15.7759 55.5517C14.0714 55.5517 12.6897 54.1699 12.6897 52.4655C12.6897 50.761 14.0714 49.3792 15.7759 49.3792C17.4803 49.3792 18.8621 50.761 18.8621 52.4655ZM15.7759 154.31C17.4803 154.31 18.8621 152.928 18.8621 151.224C18.8621 149.52 17.4803 148.138 15.7759 148.138C14.0714 148.138 12.6897 149.52 12.6897 151.224C12.6897 152.928 14.0714 154.31 15.7759 154.31ZM18.8621 27.7758C18.8621 29.4803 17.4803 30.862 15.7759 30.862C14.0714 30.862 12.6897 29.4803 12.6897 27.7758C12.6897 26.0714 14.0714 24.6896 15.7759 24.6896C17.4803 24.6896 18.8621 26.0714 18.8621 27.7758ZM15.7759 129.621C17.4803 129.621 18.8621 128.239 18.8621 126.534C18.8621 124.83 17.4803 123.448 15.7759 123.448C14.0714 123.448 12.6897 124.83 12.6897 126.534C12.6897 128.239 14.0714 129.621 15.7759 129.621ZM18.8621 77.1551C18.8621 78.8596 17.4803 80.2413 15.7759 80.2413C14.0714 80.2413 12.6897 78.8596 12.6897 77.1551C12.6897 75.4506 14.0714 74.0689 15.7759 74.0689C17.4803 74.0689 18.8621 75.4506 18.8621 77.1551ZM15.7759 179C17.4803 179 18.8621 177.618 18.8621 175.914C18.8621 174.209 17.4803 172.827 15.7759 172.827C14.0714 172.827 12.6897 174.209 12.6897 175.914C12.6897 177.618 14.0714 179 15.7759 179ZM117.621 3.08621C117.621 4.79067 116.239 6.17241 114.534 6.17241C112.83 6.17241 111.448 4.79067 111.448 3.08621C111.448 1.38174 112.83 0 114.534 0C116.239 0 117.621 1.38174 117.621 3.08621ZM114.534 104.931C116.239 104.931 117.621 103.549 117.621 101.845C117.621 100.14 116.239 98.7585 114.534 98.7585C112.83 98.7585 111.448 100.14 111.448 101.845C111.448 103.549 112.83 104.931 114.534 104.931ZM117.621 52.4655C117.621 54.1699 116.239 55.5517 114.534 55.5517C112.83 55.5517 111.448 54.1699 111.448 52.4655C111.448 50.761 112.83 49.3792 114.534 49.3792C116.239 49.3792 117.621 50.761 117.621 52.4655ZM114.534 154.31C116.239 154.31 117.621 152.928 117.621 151.224C117.621 149.52 116.239 148.138 114.534 148.138C112.83 148.138 111.448 149.52 111.448 151.224C111.448 152.928 112.83 154.31 114.534 154.31ZM117.621 27.7758C117.621 29.4803 116.239 30.862 114.534 30.862C112.83 30.862 111.448 29.4803 111.448 27.7758C111.448 26.0714 112.83 24.6896 114.534 24.6896C116.239 24.6896 117.621 26.0714 117.621 27.7758ZM114.534 129.621C116.239 129.621 117.621 128.239 117.621 126.534C117.621 124.83 116.239 123.448 114.534 123.448C112.83 123.448 111.448 124.83 111.448 126.534C111.448 128.239 112.83 129.621 114.534 129.621ZM117.621 77.1551C117.621 78.8596 116.239 80.2413 114.534 80.2413C112.83 80.2413 111.448 78.8596 111.448 77.1551C111.448 75.4506 112.83 74.0689 114.534 74.0689C116.239 74.0689 117.621 75.4506 117.621 77.1551ZM114.534 179C116.239 179 117.621 177.618 117.621 175.914C117.621 174.209 116.239 172.827 114.534 172.827C112.83 172.827 111.448 174.209 111.448 175.914C111.448 177.618 112.83 179 114.534 179ZM68.2414 3.08621C68.2414 4.79067 66.8596 6.17241 65.1552 6.17241C63.4507 6.17241 62.069 4.79067 62.069 3.08621C62.069 1.38174 63.4507 0 65.1552 0C66.8596 0 68.2414 1.38174 68.2414 3.08621ZM65.1552 104.931C66.8596 104.931 68.2414 103.549 68.2414 101.845C68.2414 100.14 66.8596 98.7585 65.1552 98.7585C63.4507 98.7585 62.069 100.14 62.069 101.845C62.069 103.549 63.4507 104.931 65.1552 104.931ZM68.2414 52.4655C68.2414 54.1699 66.8596 55.5517 65.1552 55.5517C63.4507 55.5517 62.069 54.1699 62.069 52.4655C62.069 50.761 63.4507 49.3792 65.1552 49.3792C66.8596 49.3792 68.2414 50.761 68.2414 52.4655ZM65.1552 154.31C66.8596 154.31 68.2414 152.928 68.2414 151.224C68.2414 149.52 66.8596 148.138 65.1552 148.138C63.4507 148.138 62.069 149.52 62.069 151.224C62.069 152.928 63.4507 154.31 65.1552 154.31ZM68.2414 27.7758C68.2414 29.4803 66.8596 30.862 65.1552 30.862C63.4507 30.862 62.069 29.4803 62.069 27.7758C62.069 26.0714 63.4507 24.6896 65.1552 24.6896C66.8596 24.6896 68.2414 26.0714 68.2414 27.7758ZM65.1552 129.621C66.8596 129.621 68.2414 128.239 68.2414 126.534C68.2414 124.83 66.8596 123.448 65.1552 123.448C63.4507 123.448 62.069 124.83 62.069 126.534C62.069 128.239 63.4507 129.621 65.1552 129.621ZM68.2414 77.1551C68.2414 78.8596 66.8596 80.2413 65.1552 80.2413C63.4507 80.2413 62.069 78.8596 62.069 77.1551C62.069 75.4506 63.4507 74.0689 65.1552 74.0689C66.8596 74.0689 68.2414 75.4506 68.2414 77.1551ZM65.1552 179C66.8596 179 68.2414 177.618 68.2414 175.914C68.2414 174.209 66.8596 172.827 65.1552 172.827C63.4507 172.827 62.069 174.209 62.069 175.914C62.069 177.618 63.4507 179 65.1552 179ZM167 3.08621C167 4.79067 165.618 6.17241 163.914 6.17241C162.209 6.17241 160.828 4.79067 160.828 3.08621C160.828 1.38174 162.209 0 163.914 0C165.618 0 167 1.38174 167 3.08621ZM163.914 104.931C165.618 104.931 167 103.549 167 101.845C167 100.14 165.618 98.7585 163.914 98.7585C162.209 98.7585 160.828 100.14 160.828 101.845C160.828 103.549 162.209 104.931 163.914 104.931ZM167 52.4655C167 54.1699 165.618 55.5517 163.914 55.5517C162.209 55.5517 160.828 54.1699 160.828 52.4655C160.828 50.761 162.209 49.3792 163.914 49.3792C165.618 49.3792 167 50.761 167 52.4655ZM163.914 154.31C165.618 154.31 167 152.928 167 151.224C167 149.52 165.618 148.138 163.914 148.138C162.209 148.138 160.828 149.52 160.828 151.224C160.828 152.928 162.209 154.31 163.914 154.31ZM167 27.7758C167 29.4803 165.618 30.862 163.914 30.862C162.209 30.862 160.828 29.4803 160.828 27.7758C160.828 26.0714 162.209 24.6896 163.914 24.6896C165.618 24.6896 167 26.0714 167 27.7758ZM163.914 129.621C165.618 129.621 167 128.239 167 126.534C167 124.83 165.618 123.448 163.914 123.448C162.209 123.448 160.828 124.83 160.828 126.534C160.828 128.239 162.209 129.621 163.914 129.621ZM167 77.1551C167 78.8596 165.618 80.2413 163.914 80.2413C162.209 80.2413 160.828 78.8596 160.828 77.1551C160.828 75.4506 162.209 74.0689 163.914 74.0689C165.618 74.0689 167 75.4506 167 77.1551ZM163.914 179C165.618 179 167 177.618 167 175.914C167 174.209 165.618 172.827 163.914 172.827C162.209 172.827 160.828 174.209 160.828 175.914C160.828 177.618 162.209 179 163.914 179Z" fill="#69DAF3" fill-opacity="0.4"/>
</svg>
